<svg width="24" height="24" viewBox="0 0 24 24" fill="none" xmlns="http://www.w3.org/2000/svg">
<path d="M7.16999 17.58C6.97999 17.58 6.78999 17.51 6.63999 17.36C6.34999 17.07 6.34999 16.59 6.63999 16.3L16.3 6.63999C16.59 6.34999 17.07 6.34999 17.36 6.63999C17.65 6.92999 17.65 7.40998 17.36 7.69998L7.69998 17.36C7.55998 17.51 7.35999 17.58 7.16999 17.58Z" fill="black"/>
<path d="M16.83 17.58C16.64 17.58 16.45 17.51 16.3 17.36L6.63999 7.69998C6.34999 7.40998 6.34999 6.92999 6.63999 6.63999C6.92999 6.34999 7.40998 6.34999 7.69998 6.63999L17.36 16.3C17.65 16.59 17.65 17.07 17.36 17.36C17.21 17.51 17.02 17.58 16.83 17.58Z" fill="black"/>
</svg>
