<svg width="24" height="24" viewBox="0 0 24 24" fill="none" xmlns="http://www.w3.org/2000/svg">
<path d="M5.53999 21.0437C4.92999 21.0437 4.35999 20.8337 3.94999 20.4437C3.42999 19.9537 3.17999 19.2137 3.26999 18.4137L3.63999 15.1737C3.70999 14.5637 4.07999 13.7537 4.50999 13.3137L12.72 4.62373C14.77 2.45373 16.91 2.39373 19.08 4.44373C21.25 6.49373 21.31 8.63373 19.26 10.8037L11.05 19.4937C10.63 19.9437 9.84999 20.3637 9.23999 20.4637L6.01999 21.0137C5.84999 21.0237 5.69999 21.0437 5.53999 21.0437ZM15.93 4.43373C15.16 4.43373 14.49 4.91373 13.81 5.63373L5.59999 14.3337C5.39999 14.5437 5.16999 15.0437 5.12999 15.3337L4.75999 18.5737C4.71999 18.9037 4.79999 19.1737 4.97999 19.3437C5.15999 19.5137 5.42999 19.5737 5.75999 19.5237L8.97999 18.9737C9.26999 18.9237 9.74999 18.6637 9.94999 18.4537L18.16 9.76373C19.4 8.44373 19.85 7.22373 18.04 5.52373C17.24 4.75373 16.55 4.43373 15.93 4.43373Z" fill="black"/>
<path d="M17.34 12.4738C17.32 12.4738 17.29 12.4738 17.27 12.4738C14.15 12.1638 11.64 9.79378 11.16 6.69378C11.1 6.28378 11.38 5.90378 11.79 5.83378C12.2 5.77378 12.58 6.05378 12.65 6.46378C13.03 8.88378 14.99 10.7438 17.43 10.9838C17.84 11.0238 18.14 11.3938 18.1 11.8038C18.05 12.1838 17.72 12.4738 17.34 12.4738Z" fill="black"/>
</svg>
